<svg xmlns="http://www.w3.org/2000/svg" viewBox="0 0 512 512" role="img" aria-label="CellForge">
  <defs>
    <filter id="cellGlow" x="-45%" y="-45%" width="190%" height="190%" color-interpolation-filters="sRGB">
      <feGaussianBlur stdDeviation="9" result="blur"/>
      <feColorMatrix in="blur" type="matrix" values="1 0 0 0 0.95 0 1 0 0 0.95 0 0 1 0 0.95 0 0 0 .72 0"/>
      <feMerge>
        <feMergeNode/>
        <feMergeNode in="SourceGraphic"/>
      </feMerge>
    </filter>
    <linearGradient id="frame" x1="128" y1="86" x2="404" y2="430" gradientUnits="userSpaceOnUse">
      <stop stop-color="#3d3d3d"/>
      <stop offset=".55" stop-color="#191919"/>
      <stop offset="1" stop-color="#343434"/>
    </linearGradient>
  </defs>
  <rect width="512" height="512" rx="88" fill="#070807"/>
  <g fill="url(#frame)" stroke="#5d5d5d" stroke-width="4" stroke-linejoin="round">
    <path d="M118 138 168 88h92v38h-74l-64 64v60H84v-86l34-26Z"/>
    <path d="M394 138 344 88h-92v38h74l64 64v60h38v-86l-34-26Z"/>
    <path d="M118 374 168 424h92v-38h-74l-64-64v-60H84v86l34 26Z"/>
    <path d="M394 374 344 424h-92v-38h74l64-64v-60h38v86l-34 26Z"/>
  </g>
  <g fill="#202020" stroke="#484848" stroke-width="5" stroke-linejoin="round">
    <path d="M172 170h80l24 24h64l34 34v84l-34 34h-64l-24 24h-80l-34-34V204l34-34Z"/>
  </g>
  <g filter="url(#cellGlow)" fill="#f8f8f5">
    <rect x="181" y="181" width="70" height="70" rx="15"/>
    <rect x="261" y="181" width="70" height="70" rx="15"/>
    <rect x="181" y="261" width="70" height="70" rx="15"/>
    <rect x="261" y="261" width="70" height="70" rx="15"/>
  </g>
  <g stroke="#f4f4f2" stroke-width="11" stroke-linecap="square" filter="url(#cellGlow)">
    <path d="M234 126v31M256 126v31M278 126v31"/>
    <path d="M234 355v31M256 355v31M278 355v31"/>
    <path d="M126 234h31M126 256h31M126 278h31"/>
    <path d="M355 234h31M355 256h31M355 278h31"/>
  </g>
</svg>
